<svg xmlns="http://www.w3.org/2000/svg" viewBox="0 0 64 64" role="img" aria-label="Полка">
  <rect width="64" height="64" rx="18" fill="#28584c"/>
  <path d="M16 17.5c0-3 2.4-5.5 5.5-5.5H32v39H21.5A5.5 5.5 0 0 1 16 45.5v-28Z" fill="#f7f4ed"/>
  <path d="M32 12h10.5c3 0 5.5 2.4 5.5 5.5v28c0 3-2.4 5.5-5.5 5.5H32V12Z" fill="#dff15b"/>
  <path d="M24 20h-8v25.5c0 3 2.4 5.5 5.5 5.5H32V20h-8Z" fill="none" stroke="#173c34" stroke-width="3.2" stroke-linecap="round" stroke-linejoin="round"/>
  <path d="M40 20h8v25.5c0 3-2.4 5.5-5.5 5.5H32V20h8Z" fill="none" stroke="#173c34" stroke-width="3.2" stroke-linecap="round" stroke-linejoin="round"/>
  <path d="M32 14v37" stroke="#173c34" stroke-width="3.2" stroke-linecap="round"/>
</svg>
